<svg width="110" height="32" viewBox="0 0 110 32" fill="none" xmlns="http://www.w3.org/2000/svg">
<path d="M47.464 25H44.776V7.24H47.392L53.608 17.248H53.752L59.944 7.24H62.584V25H59.872V12.4H59.752L54.592 20.68H52.768L47.608 12.424H47.464V25ZM74.2876 11.992H76.9516V25H74.2876V23.248H74.1436C73.3756 24.52 71.8876 25.336 70.3036 25.336C67.5676 25.336 65.8876 23.512 65.8876 20.368V11.992H68.5276V19.864C68.5276 21.712 69.6556 22.864 71.1916 22.864C73.0396 22.864 74.2876 21.592 74.2876 19.624V11.992ZM84.4609 25.336C81.7729 25.336 79.9249 24.088 79.0609 22.432L81.1009 21.016C81.8689 22.312 83.0209 23.032 84.4849 23.032C85.9489 23.032 86.7649 22.432 86.7649 21.52C86.7649 20.608 85.9729 20.032 84.1009 19.624C81.1489 18.928 79.4449 17.68 79.4449 15.544C79.4449 13.192 81.3409 11.68 84.3649 11.68C86.7169 11.68 88.3729 12.76 89.3809 14.392L87.3649 15.808C86.6209 14.632 85.5649 13.96 84.3649 13.96C82.9969 13.96 82.1569 14.536 82.1569 15.448C82.1569 16.288 83.0449 16.912 85.0129 17.368C87.8689 17.992 89.4769 19.288 89.4769 21.28C89.4769 23.728 87.4849 25.336 84.4609 25.336ZM94.9328 8.392C94.9328 9.424 94.2608 10.048 93.2048 10.048C92.1968 10.048 91.5728 9.424 91.5728 8.392C91.5728 7.36 92.1968 6.688 93.2048 6.688C94.2608 6.688 94.9328 7.36 94.9328 8.392ZM94.5728 12.28V25H91.9328V12.28H94.5728ZM103.519 25.336C99.7032 25.336 97.3032 22.648 97.3032 18.472C97.3032 14.344 99.7032 11.68 103.519 11.68C105.559 11.68 107.479 12.808 108.463 14.56L106.375 16C105.679 14.848 104.623 14.176 103.399 14.176C101.335 14.176 100.015 15.88 100.015 18.472C100.015 21.112 101.335 22.816 103.375 22.816C104.623 22.816 105.679 22.144 106.375 20.992L108.463 22.456C107.479 24.208 105.559 25.336 103.519 25.336Z" fill="white" fill-opacity="0.9"/>
<path d="M0 16C0 7.16344 7.16344 0 16 0C24.8366 0 32 7.16344 32 16C32 24.8366 24.8366 32 16 32H6.4C2.86538 32 0 29.1346 0 25.6V16Z" fill="url(#paint0_linear_3817_31)"/>
<path d="M16 5C22.0751 5 27 9.92487 27 16C27 22.0751 22.0751 27 16 27H8.7998C6.70128 26.9999 5.00011 25.2987 5 23.2002V16C5 9.92487 9.92487 5 16 5Z" stroke="white" style="mix-blend-mode:overlay" stroke-width="2"/>
<path d="M16.5547 11.5C16.6656 11.5 16.7695 11.5552 16.8311 11.6475L18.2139 13.7227C18.3258 13.8906 18.3258 14.1094 18.2139 14.2773L16.8311 16.3525C16.7695 16.4448 16.6656 16.5 16.5547 16.5C16.2895 16.5 16.1312 16.2041 16.2783 15.9834L17.252 14.5234C17.4631 14.2067 17.4631 13.7933 17.252 13.4766L16.2783 12.0166C16.1312 11.7959 16.2895 11.5 16.5547 11.5Z" stroke="white" style="mix-blend-mode:overlay"/>
<rect x="20.5" y="11.5" width="1" height="5" rx="0.5" stroke="white" style="mix-blend-mode:overlay"/>
<defs>
<linearGradient id="paint0_linear_3817_31" x1="0" y1="0" x2="32" y2="32" gradientUnits="userSpaceOnUse">
<stop stop-color="#EEA8FF"/>
<stop offset="1" stop-color="#FF008C"/>
</linearGradient>
</defs>
</svg>
