<svg width="32" height="32" viewBox="0 0 32 32" fill="none" xmlns="http://www.w3.org/2000/svg">
<g clip-path="url(#clip0_3894_2)">
<path d="M16 0C24.8366 0 32 7.16344 32 16C32 24.8366 24.8366 32 16 32C7.16344 32 0 24.8366 0 16C0 7.16344 7.16344 0 16 0ZM22.9326 11.8906C22.2139 11.8906 21.5628 12.0482 20.9795 12.3633C20.3962 12.6758 19.9326 13.138 19.5889 13.75C19.2451 14.3594 19.0732 15.1094 19.0732 16C19.0732 16.8854 19.2412 17.6341 19.5771 18.2461C19.9157 18.8581 20.3753 19.3216 20.9561 19.6367C21.5394 19.9518 22.1982 20.1094 22.9326 20.1094C23.5186 20.1094 24.0329 20.0195 24.4756 19.8398C24.9183 19.6602 25.2894 19.4232 25.5889 19.1289C25.891 18.832 26.124 18.5091 26.2881 18.1602C26.4521 17.8086 26.5472 17.4635 26.5732 17.125L24.3701 17.1094C24.3441 17.2812 24.2933 17.4362 24.2178 17.5742C24.1449 17.7096 24.0498 17.8255 23.9326 17.9219C23.8154 18.0182 23.6774 18.0924 23.5186 18.1445C23.3597 18.194 23.18 18.2188 22.9795 18.2188C22.6279 18.2187 22.3271 18.1367 22.0771 17.9727C21.8271 17.806 21.6357 17.5586 21.5029 17.2305C21.3727 16.8997 21.3076 16.4896 21.3076 16C21.3076 15.5365 21.3714 15.1393 21.499 14.8086C21.6292 14.4779 21.8193 14.224 22.0693 14.0469C22.3219 13.8698 22.6305 13.7813 22.9951 13.7812C23.2035 13.7812 23.3896 13.8112 23.5537 13.8711C23.7178 13.9284 23.8571 14.0117 23.9717 14.1211C24.0889 14.2279 24.18 14.3555 24.2451 14.5039C24.3128 14.6523 24.3545 14.8177 24.3701 15H26.5732C26.5316 14.5026 26.4131 14.0612 26.2178 13.6758C26.0225 13.2904 25.7646 12.9661 25.4443 12.7031C25.124 12.4375 24.7516 12.2357 24.3271 12.0977C23.9027 11.9596 23.4378 11.8906 22.9326 11.8906ZM5.47266 12V20H10.8789V18.25H7.64453V12H5.47266ZM11.7568 12V20H13.9287V17.3594H14.6807L16.085 20H18.4443L16.8184 17.0156C17.2336 16.8165 17.56 16.5351 17.7959 16.168C18.0511 15.7747 18.1787 15.2917 18.1787 14.7188C18.1787 14.151 18.055 13.6641 17.8076 13.2578C17.5602 12.8516 17.2139 12.5404 16.7686 12.3242C16.3232 12.1081 15.8037 12 15.21 12H11.7568ZM14.6943 13.7344C14.9495 13.7344 15.167 13.7695 15.3467 13.8398C15.529 13.9076 15.6683 14.0143 15.7646 14.1602C15.8636 14.3034 15.9131 14.4896 15.9131 14.7188C15.9131 14.9453 15.8636 15.1289 15.7646 15.2695C15.6683 15.4102 15.529 15.513 15.3467 15.5781C15.167 15.6406 14.9495 15.6719 14.6943 15.6719H13.9287V13.7344H14.6943Z" fill="white"/>
</g>
<defs>
<clipPath id="clip0_3894_2">
<rect width="32" height="32" fill="white"/>
</clipPath>
</defs>
</svg>
