<svg width="32" height="32" viewBox="0 0 32 32" fill="none" xmlns="http://www.w3.org/2000/svg">
<rect x="2" y="26" width="4" height="4" rx="2" fill="white"/>
<rect x="2" y="2" width="8" height="8" rx="4" fill="white"/>
<path d="M26 22C28.2091 22 30 23.7909 30 26C30 28.2091 28.2091 30 26 30C23.7909 30 22 28.2091 22 26C22 23.7909 23.7909 22 26 22ZM26 24C24.8954 24 24 24.8954 24 26C24 27.1046 24.8954 28 26 28C27.1046 28 28 27.1046 28 26C28 24.8954 27.1046 24 26 24Z" fill="white"/>
<path d="M13 12C16.866 12 20 15.134 20 19C20 22.866 16.866 26 13 26C9.13401 26 6 22.866 6 19C6 15.134 9.13401 12 13 12ZM13 14C10.2386 14 8 16.2386 8 19C8 21.7614 10.2386 24 13 24C15.7614 24 18 21.7614 18 19C18 16.2386 15.7614 14 13 14Z" fill="white"/>
<rect x="18" y="2" width="12" height="12" rx="6" fill="white"/>
</svg>
