<svg width="32" height="32" viewBox="0 0 32 32" fill="none" xmlns="http://www.w3.org/2000/svg">
<path d="M16 0C20.6724 0 24.8766 2.0033 27.8018 5.19727C24.9554 2.59085 21.1636 1 17 1C8.16344 1 1 8.16344 1 17C1 21.1636 2.59085 24.9554 5.19727 27.8018C2.0033 24.8766 0 20.6724 0 16C0 7.16344 7.16344 0 16 0Z" fill="white"/>
<path d="M22.5508 8.44824C24.6626 10.2817 26 12.9838 26 16C26 21.5228 21.5228 26 16 26C12.984 26 10.2827 24.6623 8.44922 22.5508C10.2043 24.0747 12.4932 25 15 25C20.5228 25 25 20.5228 25 15C25 12.4929 24.075 10.2034 22.5508 8.44824Z" fill="white"/>
<path d="M12.7833 21.2167C12.2611 20.6944 12 20.0667 12 19.3333C12 18.6 12.2611 17.9722 12.7833 17.45C13.3056 16.9278 13.9333 16.6667 14.6667 16.6667C14.9222 16.6667 15.1583 16.6972 15.375 16.7583C15.5917 16.8194 15.8 16.9111 16 17.0333V11C16 10.4477 16.4477 10 17 10H19C19.5523 10 20 10.4477 20 11V11.6667C20 12.219 19.5523 12.6667 19 12.6667H17.3333V19.3333C17.3333 20.0667 17.0722 20.6944 16.55 21.2167C16.0278 21.7389 15.4 22 14.6667 22C13.9333 22 13.3056 21.7389 12.7833 21.2167Z" fill="white"/>
</svg>
