<svg width="32" height="32" viewBox="0 0 32 32" fill="none" xmlns="http://www.w3.org/2000/svg">
<rect x="14" width="3" height="32" rx="1.5" fill="white"/>
<path d="M0 6C0 5.44772 0.447715 5 1 5H6C8.20914 5 10 6.79086 10 9V23C10 25.2091 8.20914 27 6 27H1C0.447716 27 0 26.5523 0 26V6Z" fill="white"/>
<path d="M21 11C21 8.79086 22.7909 7 25 7H31C31.5523 7 32 7.44772 32 8V16C32 16.5523 31.5523 17 31 17H25C22.7909 17 21 15.2091 21 13V11Z" fill="white"/>
<path d="M21 22C21 20.3431 22.3431 19 24 19H31C31.5523 19 32 19.4477 32 20V24C32 24.5523 31.5523 25 31 25H24C22.3431 25 21 23.6569 21 22Z" fill="white"/>
</svg>
