<svg width="20" height="20" viewBox="0 0 20 20" fill="none" xmlns="http://www.w3.org/2000/svg">
<path d="M0 13C0 16.866 3.13401 20 7 20C8.10457 20 9 19.1046 9 18C9 16.8954 8.10457 16 7 16C5.34315 16 4 14.6569 4 13C4 11.8954 3.10457 11 2 11C0.895431 11 0 11.8954 0 13Z" fill="white"/>
<path d="M20 13C20 16.866 16.866 20 13 20C11.8954 20 11 19.1046 11 18C11 16.8954 11.8954 16 13 16C14.6569 16 16 14.6569 16 13C16 11.8954 16.8954 11 18 11C19.1046 11 20 11.8954 20 13Z" fill="white"/>
<path d="M0 7C0 3.13401 3.13401 0 7 0C8.10457 0 9 0.895431 9 2C9 3.10457 8.10457 4 7 4C5.34315 4 4 5.34315 4 7C4 8.10457 3.10457 9 2 9C0.895431 9 0 8.10457 0 7Z" fill="white"/>
<path d="M20 7C20 3.13401 16.866 0 13 0C11.8954 0 11 0.895431 11 2C11 3.10457 11.8954 4 13 4C14.6569 4 16 5.34315 16 7C16 8.10457 16.8954 9 18 9C19.1046 9 20 8.10457 20 7Z" fill="white"/>
</svg>
