<svg width="20" height="20" viewBox="0 0 20 20" fill="none" xmlns="http://www.w3.org/2000/svg">
<path d="M4.41421 0.585786C4.78929 0.210713 5.29799 0 5.82843 0H7C8.10457 0 9 0.895431 9 2V2.34315C9 3.2582 8.2582 4 7.34315 4C7.12343 4 6.91272 4.08728 6.75736 4.24264L4.24264 6.75736C4.08728 6.91272 4 7.12343 4 7.34315C4 8.2582 3.2582 9 2.34315 9H2C0.895431 9 0 8.10457 0 7V5.82843C0 5.29799 0.210714 4.78929 0.585786 4.41421L4.41421 0.585786Z" fill="white"/>
<path d="M4.41421 19.4142C4.78929 19.7893 5.29799 20 5.82843 20H7C8.10457 20 9 19.1046 9 18V17.6569C9 16.7418 8.2582 16 7.34315 16C7.12343 16 6.91272 15.9127 6.75736 15.7574L4.24264 13.2426C4.08728 13.0873 4 12.8766 4 12.6569C4 11.7418 3.2582 11 2.34315 11H2C0.895431 11 0 11.8954 0 13V14.1716C0 14.702 0.210714 15.2107 0.585786 15.5858L4.41421 19.4142Z" fill="white"/>
<path d="M15.5858 19.4142C15.2107 19.7893 14.702 20 14.1716 20H13C11.8954 20 11 19.1046 11 18V17.6569C11 16.7418 11.7418 16 12.6569 16C12.8766 16 13.0873 15.9127 13.2426 15.7574L15.7574 13.2426C15.9127 13.0873 16 12.8766 16 12.6569C16 11.7418 16.7418 11 17.6569 11H18C19.1046 11 20 11.8954 20 13V14.1716C20 14.702 19.7893 15.2107 19.4142 15.5858L15.5858 19.4142Z" fill="white"/>
<path d="M15.5858 0.585786C15.2107 0.210713 14.702 0 14.1716 0H13C11.8954 0 11 0.895431 11 2V2.34315C11 3.2582 11.7418 4 12.6569 4C12.8766 4 13.0873 4.08728 13.2426 4.24264L15.7574 6.75736C15.9127 6.91272 16 7.12343 16 7.34315C16 8.2582 16.7418 9 17.6569 9H18C19.1046 9 20 8.10457 20 7V5.82843C20 5.29799 19.7893 4.78929 19.4142 4.41421L15.5858 0.585786Z" fill="white"/>
</svg>
