<svg width="20" height="20" viewBox="0 0 20 20" fill="none" xmlns="http://www.w3.org/2000/svg">
<path d="M0 6C0 2.68629 2.68629 0 6 0H7C8.10457 0 9 0.895431 9 2C9 3.10457 8.10457 4 7 4H6C4.89543 4 4 4.89543 4 6V7C4 8.10457 3.10457 9 2 9C0.895431 9 0 8.10457 0 7V6Z" fill="white"/>
<path d="M0 14C0 17.3137 2.68629 20 6 20H7C8.10457 20 9 19.1046 9 18C9 16.8954 8.10457 16 7 16H6C4.89543 16 4 15.1046 4 14V13C4 11.8954 3.10457 11 2 11C0.895431 11 0 11.8954 0 13V14Z" fill="white"/>
<path d="M20 14C20 17.3137 17.3137 20 14 20H13C11.8954 20 11 19.1046 11 18C11 16.8954 11.8954 16 13 16H14C15.1046 16 16 15.1046 16 14V13C16 11.8954 16.8954 11 18 11C19.1046 11 20 11.8954 20 13V14Z" fill="white"/>
<path d="M20 6C20 2.68629 17.3137 0 14 0H13C11.8954 0 11 0.895431 11 2C11 3.10457 11.8954 4 13 4H14C15.1046 4 16 4.89543 16 6V7C16 8.10457 16.8954 9 18 9C19.1046 9 20 8.10457 20 7V6Z" fill="white"/>
</svg>
