<svg width="20" height="20" viewBox="0 0 20 20" fill="none" xmlns="http://www.w3.org/2000/svg">
<path d="M2.41421 0.585787C2.78929 0.210714 3.29799 0 3.82843 0H7C8.10457 0 9 0.895431 9 2C9 3.10457 8.10457 4 7 4H5.41421C5.149 4 4.89464 4.10536 4.70711 4.29289L4.29289 4.70711C4.10536 4.89464 4 5.149 4 5.41421V7C4 8.10457 3.10457 9 2 9C0.895431 9 0 8.10457 0 7V3.82843C0 3.29799 0.210714 2.78929 0.585786 2.41421L2.41421 0.585787Z" fill="white"/>
<path d="M2.41421 19.4142C2.78929 19.7893 3.29799 20 3.82843 20H7C8.10457 20 9 19.1046 9 18C9 16.8954 8.10457 16 7 16H5.41421C5.149 16 4.89464 15.8946 4.70711 15.7071L4.29289 15.2929C4.10536 15.1054 4 14.851 4 14.5858V13C4 11.8954 3.10457 11 2 11C0.895431 11 0 11.8954 0 13V16.1716C0 16.702 0.210714 17.2107 0.585786 17.5858L2.41421 19.4142Z" fill="white"/>
<path d="M17.5858 19.4142C17.2107 19.7893 16.702 20 16.1716 20H13C11.8954 20 11 19.1046 11 18C11 16.8954 11.8954 16 13 16H14.5858C14.851 16 15.1054 15.8946 15.2929 15.7071L15.7071 15.2929C15.8946 15.1054 16 14.851 16 14.5858V13C16 11.8954 16.8954 11 18 11C19.1046 11 20 11.8954 20 13V16.1716C20 16.702 19.7893 17.2107 19.4142 17.5858L17.5858 19.4142Z" fill="white"/>
<path d="M17.5858 0.585787C17.2107 0.210714 16.702 0 16.1716 0H13C11.8954 0 11 0.895431 11 2C11 3.10457 11.8954 4 13 4H14.5858C14.851 4 15.1054 4.10536 15.2929 4.29289L15.7071 4.70711C15.8946 4.89464 16 5.149 16 5.41421V7C16 8.10457 16.8954 9 18 9C19.1046 9 20 8.10457 20 7V3.82843C20 3.29799 19.7893 2.78929 19.4142 2.41421L17.5858 0.585787Z" fill="white"/>
</svg>
