<svg width="577" height="512" viewBox="0 0 577 512" fill="none" xmlns="http://www.w3.org/2000/svg">
<path d="M73.375 41.375C85.8749 28.875 106.175 28.875 118.675 41.375L182.675 105.375C195.175 117.875 195.175 138.175 182.675 150.675C170.175 163.175 149.875 163.175 137.375 150.675L127.975 141.275V370.775L137.375 361.375C149.875 348.875 170.175 348.875 182.675 361.375C195.175 373.875 195.175 394.175 182.675 406.675L118.675 470.675C106.175 483.175 85.875 483.175 73.375 470.675L9.37495 406.675C-3.12494 394.175 -3.12501 373.875 9.37495 361.375C21.8749 348.875 42.1748 348.875 54.6748 361.375L64.0751 370.775V141.275L54.6748 150.675C42.1748 163.175 21.875 163.175 9.37495 150.675C-3.12495 138.175 -3.12501 117.875 9.37495 105.375L73.375 41.375ZM544.074 63.9755C561.747 63.9755 576.074 78.3024 576.074 95.9755V415.976C576.074 433.648 561.747 447.976 544.074 447.976H288.074C270.401 447.976 256.074 433.648 256.074 415.975V95.9746C256.074 78.3017 270.401 63.9755 288.074 63.9755H544.074Z" fill="black"/>
</svg>
