<svg width="250" height="150" viewBox="0 0 250 150" fill="none" xmlns="http://www.w3.org/2000/svg">
<rect width="250" height="150" fill="#C8E1ED"/>
<path d="M156.25 59.673C156.361 59.7642 156.471 59.8553 156.581 59.9463C157.989 61.1169 159.289 62.4005 160.417 63.8436C160.584 64.0417 160.751 64.2393 160.918 64.4366C162.057 65.8056 163.078 67.2609 164.063 68.7441C164.139 68.859 164.139 68.859 164.217 68.9763C169.136 76.4257 172.042 85.2576 172.012 94.2044C172.012 94.326 172.012 94.4477 172.011 94.573C172.006 96.34 171.968 98.0701 171.667 99.8152C171.646 99.9409 171.626 100.067 171.604 100.196C170.319 107.862 166.395 114.558 161.459 120.46C161.415 120.512 161.372 120.564 161.328 120.617C160.267 121.896 159.141 123.102 157.972 124.281C157.863 124.39 157.755 124.5 157.646 124.61C157.021 125.244 156.384 125.837 155.687 126.393C155.43 126.601 155.184 126.817 154.939 127.039C154.472 127.459 153.981 127.84 153.477 128.214C153.34 128.317 153.34 128.317 153.2 128.421C145.413 134.184 136.133 136.86 126.563 137.527C126.472 137.533 126.381 137.539 126.288 137.546C123.926 137.708 121.567 137.79 119.199 137.787C119.081 137.787 118.963 137.787 118.841 137.787C117.032 137.785 115.238 137.758 113.438 137.559C113.315 137.546 113.193 137.532 113.067 137.519C105.343 136.631 97.477 133.257 91.7511 127.924C91.5168 127.708 91.2793 127.5 91.0354 127.296C90.4686 126.802 89.9752 126.236 89.4794 125.673C89.4322 125.619 89.3851 125.566 89.3365 125.511C83.8693 119.265 80.7313 111.198 78.4377 97.9384C78.4192 97.7672 78.4192 97.7672 78.4003 97.5925C77.4037 87.988 78.8965 77.1203 85.154 68.5499C85.5071 68.1169 85.8755 67.6986 86.2502 67.2844C86.3097 67.2185 86.3691 67.1526 86.4303 67.0846C87.0878 66.3587 87.7519 65.6526 88.491 65.0085C88.7347 64.7956 88.9724 64.5773 89.2091 64.3569C89.8338 63.7762 90.4787 63.2281 91.1461 62.6967C91.1989 62.6543 91.2517 62.6119 91.3061 62.5682C99.5727 55.9361 128.49 39.8626 156.25 59.673Z" fill="#FEFE63"/>
<path d="M143.561 52.3335C148.44 53.7686 152.656 56.712 156.581 59.9463C157.989 61.1169 159.289 62.4005 160.417 63.8436C160.584 64.0416 160.751 64.2393 160.918 64.4366C162.057 65.8056 163.078 67.2608 164.063 68.7441C164.139 68.859 164.139 68.859 164.217 68.9763C169.136 76.4257 172.042 85.2576 172.012 94.2044C172.012 94.326 172.012 94.4477 172.011 94.573C172.006 96.34 171.968 98.0701 171.667 99.8152C171.646 99.9409 171.626 100.067 171.604 100.196C170.319 107.862 166.395 114.558 161.459 120.46C161.415 120.512 161.372 120.564 161.328 120.617C160.267 121.896 159.141 123.102 157.972 124.281C157.863 124.39 157.755 124.5 157.646 124.61C157.021 125.244 156.384 125.837 155.687 126.393C155.43 126.601 155.184 126.817 154.939 127.039C154.472 127.459 153.981 127.84 153.477 128.214C153.34 128.317 153.34 128.317 153.2 128.421C145.413 134.183 136.133 136.86 126.563 137.527C126.472 137.533 126.381 137.539 126.288 137.546C123.926 137.708 121.567 137.79 119.199 137.787C119.081 137.787 118.963 137.787 118.841 137.787C117.032 137.784 115.238 137.758 113.438 137.559C113.315 137.546 113.193 137.532 113.067 137.518C105.343 136.631 97.477 133.256 91.7511 127.924C91.5168 127.708 91.2793 127.5 91.0354 127.296C90.4686 126.802 89.9752 126.236 89.4794 125.673C89.4322 125.619 89.3851 125.566 89.3365 125.511C83.8693 119.265 80.7313 111.198 78.4377 97.9384C78.4192 97.7672 78.4192 97.7672 78.4003 97.5925C77.4037 87.988 78.8965 77.1203 85.154 68.5498C85.5071 68.1169 85.8755 67.6986 86.2502 67.2844C86.3097 67.2184 86.3691 67.1525 86.4303 67.0846C87.0878 66.3587 87.7519 65.6526 88.491 65.0084C88.7347 64.7956 88.9724 64.5773 89.2091 64.3569C89.8338 63.7762 90.4787 63.228 91.1461 62.6967C91.1989 62.6543 91.2517 62.6119 91.3061 62.5682C98.8685 56.501 118.248 44.8884 143.561 52.3335ZM122.207 57.8158C122.125 57.8271 122.043 57.8385 121.959 57.8502C116.908 58.5534 111.935 59.8296 107.292 61.9668C107.171 62.0224 107.05 62.0781 106.926 62.1354C102.866 64.0151 99.1472 66.3639 95.7015 69.2207C95.4437 69.4335 95.1825 69.6422 94.9221 69.8519C94.3555 70.3164 93.8185 70.8104 93.2827 71.3096C93.1286 71.4519 92.9723 71.5917 92.816 71.7315C87.6161 76.3953 85.2949 82.5545 84.9176 89.4392C84.882 90.1591 84.879 90.8791 84.8786 91.5998C84.8782 91.7562 84.8779 91.9127 84.8775 92.0691C84.8769 92.3948 84.8767 92.7205 84.8768 93.0461C84.8768 93.3731 84.8761 93.7001 84.8746 94.0271C84.8631 96.7074 84.9608 99.3568 85.3127 102.018C85.3302 102.156 85.3475 102.295 85.3648 102.434C85.4589 103.167 85.5684 103.89 85.7294 104.611C85.7545 104.725 85.7796 104.838 85.8054 104.955C87.4648 112.286 91.6385 119.524 97.6044 124.213C97.7197 124.309 97.8347 124.405 97.9495 124.501C101.648 127.574 106.271 129.712 110.938 130.782C111.043 130.806 111.147 130.83 111.256 130.855C114.337 131.554 117.305 131.855 120.462 131.857C120.641 131.858 120.641 131.858 120.823 131.858C123.108 131.862 125.347 131.692 127.604 131.336C127.69 131.323 127.776 131.309 127.864 131.296C130.188 130.932 132.486 130.447 134.726 129.722C134.939 129.654 135.153 129.588 135.367 129.523C136.406 129.205 137.427 128.849 138.444 128.469C138.563 128.424 138.563 128.424 138.684 128.379C140.953 127.531 143.143 126.539 145.313 125.464C145.4 125.422 145.486 125.379 145.576 125.334C146.638 124.805 147.598 124.201 148.542 123.483C148.654 123.4 148.766 123.317 148.878 123.233C150.816 121.782 152.56 120.095 154.271 118.387C154.323 118.336 154.374 118.285 154.427 118.232C154.967 117.694 155.497 117.152 155.992 116.573C156.207 116.323 156.43 116.081 156.654 115.839C157.075 115.377 157.477 114.904 157.869 114.418C158.056 114.186 158.244 113.955 158.434 113.726C161.66 109.814 164.23 105.748 165.313 100.754C165.33 100.676 165.348 100.599 165.366 100.519C165.902 98.0276 165.979 95.4323 165.977 92.8945C165.977 92.7311 165.977 92.7311 165.977 92.5644C165.977 90.3459 165.825 88.1375 165.508 85.9413C165.492 85.8286 165.492 85.8286 165.476 85.7136C164.827 81.2182 163.353 77.1913 160.625 73.5403C160.584 73.484 160.542 73.4278 160.499 73.3699C159.337 71.8089 158.056 70.3145 156.667 68.9526C156.359 68.6456 156.053 68.3363 155.748 68.0256C155.029 67.2952 154.319 66.5772 153.512 65.9448C153.242 65.7305 152.984 65.5073 152.726 65.2796C151.83 64.4912 150.875 63.796 149.896 63.1137C149.83 63.0673 149.764 63.0208 149.696 62.9729C145.84 60.276 141.739 58.855 137.129 58.0308C136.969 58.0016 136.969 58.0016 136.806 57.9719C134.458 57.574 132.11 57.4353 129.732 57.4541C129.383 57.4568 129.035 57.4582 128.687 57.4587C126.509 57.462 124.364 57.5112 122.207 57.8158Z" fill="#000098"/>
<path d="M149.499 84.6054C150.852 85.8294 151.277 87.758 151.395 89.4953C151.498 91.7846 150.607 93.7999 149.688 95.8531C149.643 95.9534 149.598 96.0537 149.552 96.157C148.58 98.3144 147.412 100.387 146.042 102.318C145.987 102.395 145.932 102.472 145.876 102.552C145.08 103.667 144.25 104.739 143.334 105.758C143.282 105.816 143.23 105.874 143.177 105.933C142.118 107.108 141.031 108.213 139.792 109.199C139.705 109.273 139.617 109.346 139.527 109.422C138.125 110.603 136.628 111.591 135 112.431C134.918 112.475 134.835 112.518 134.75 112.562C129.621 115.222 123.885 115.887 118.351 114.206C114.441 112.949 111.325 110.525 108.451 107.661C108.378 107.588 108.305 107.516 108.229 107.441C107.757 106.967 107.311 106.475 106.875 105.967C106.776 105.854 106.677 105.741 106.578 105.628C105.827 104.766 105.126 103.873 104.439 102.959C104.273 102.737 104.105 102.516 103.937 102.295C103.324 101.487 102.736 100.67 102.188 99.8152C102.144 99.7477 102.1 99.6803 102.055 99.6108C97.7055 92.9321 97.7055 92.9321 98.0211 89.4929C98.111 89.0803 98.2506 88.7236 98.4378 88.346C98.482 88.2536 98.5261 88.1613 98.5717 88.0662C98.9143 87.4233 99.3 86.9292 100 86.6777C101.268 86.4828 102.17 86.7688 103.216 87.5171C104.937 88.8604 106 90.6391 107.001 92.5429C108.709 95.7907 110.721 98.8152 113.125 101.588C113.189 101.662 113.253 101.736 113.318 101.812C113.495 102.017 113.674 102.22 113.854 102.422C113.943 102.522 114.033 102.622 114.124 102.725C114.6 103.255 115.079 103.769 115.627 104.227C115.771 104.35 115.912 104.477 116.051 104.608C117.141 105.636 118.371 106.527 119.694 107.231C119.764 107.268 119.833 107.305 119.904 107.343C121.833 108.328 124.513 108.397 126.563 107.739C128.675 107.053 130.699 106.131 132.5 104.82C132.601 104.747 132.702 104.675 132.805 104.6C134.699 103.21 136.503 101.597 137.917 99.7109C137.961 99.6534 138.005 99.5958 138.05 99.5365C138.967 98.3378 139.757 97.0902 140.436 95.7423C140.467 95.681 140.498 95.6197 140.53 95.5566C141.088 94.4209 141.541 93.2564 141.936 92.0559C142.426 90.5729 142.983 89.1356 143.646 87.7204C143.684 87.6392 143.722 87.5581 143.76 87.4745C144.388 86.1371 145.119 84.5966 146.55 83.9668C147.703 83.6187 148.54 83.9655 149.499 84.6054Z" fill="#000098"/>
<path d="M85.7614 18.6454C86.0044 18.8263 86.2319 19.0171 86.4588 19.218C86.5324 19.2818 86.606 19.3457 86.6818 19.4115C91.0334 23.4617 93.5075 31.6917 93.7733 37.4665C93.7855 37.8256 93.7891 38.1845 93.7891 38.5438C93.7895 38.7609 93.7933 38.9777 93.7972 39.1948C93.8075 40.4198 93.7122 41.8797 92.8642 42.8362C92.8129 42.8871 92.7616 42.938 92.7088 42.9905C92.5895 43.1163 92.5895 43.1163 92.4679 43.2447C92.069 43.4768 91.7103 43.5423 91.2504 43.5118C90.9709 43.3868 90.8431 43.2975 90.6254 43.0948C90.5521 43.0307 90.4788 42.9666 90.4033 42.9005C88.8123 41.4181 87.7432 39.4322 86.6671 37.5687C86.5945 37.443 86.5945 37.443 86.5203 37.3147C86.2127 36.7787 85.9169 36.2369 85.6254 35.6919C85.5725 35.5935 85.5196 35.4951 85.465 35.3936C79.1992 23.6919 79.1992 23.6919 80.0546 20.0289C80.3582 19.2519 81.1453 18.782 81.8742 18.4511C83.2131 17.9487 84.5231 17.8345 85.7614 18.6454Z" fill="#000099"/>
<path d="M162.847 16.9685C163.564 17.6473 163.965 18.5348 164.004 19.5112C163.856 24.4748 160.513 30.1138 157.983 34.2649C157.811 34.547 157.642 34.8306 157.472 35.1144C154.542 39.9888 154.542 39.9888 152.916 40.5924C152.369 40.6679 152.02 40.5853 151.562 40.2796C150.768 39.587 150.49 38.6875 150.312 37.673C150.004 32.8908 151.629 28.3224 153.541 24.0142C153.582 23.9216 153.623 23.829 153.665 23.7335C154.921 20.9063 156.787 17.6745 159.808 16.4696C160.889 16.0934 161.94 16.2783 162.847 16.9685Z" fill="#000099"/>
<path d="M124.395 12.2779C126.333 14.0453 126.324 17.7218 126.458 20.1564C126.463 20.2357 126.467 20.3149 126.472 20.3966C126.569 22.214 126.582 24.0306 126.582 25.85C126.582 26.172 126.583 26.494 126.584 26.816C126.62 35.1048 126.62 35.1048 125 36.8389C124.41 37.423 123.876 37.6101 123.053 37.6078C122.038 37.6024 121.242 37.3556 120.494 36.6385C118.493 34.2545 118.939 29.3043 118.939 26.3959C118.939 26.1137 118.938 25.8315 118.937 25.5493C118.888 15.7127 118.888 15.7127 120.815 13.6392C121.741 12.7101 123.027 11.6603 124.395 12.2779Z" fill="#000099"/>
</svg>
