<svg width="36" height="32" viewBox="0 0 36 32" fill="none" xmlns="http://www.w3.org/2000/svg">
<g clip-path="url(#clip0_4009_130)">
<path d="M7.41328 2.5874C6.63203 1.80615 5.36328 1.80615 4.58203 2.5874L0.582031 6.5874C-0.199219 7.36865 -0.199219 8.6374 0.582031 9.41865C1.36328 10.1999 2.63203 10.1999 3.41328 9.41865L4.00078 8.83115V23.1749L3.41328 22.5874C2.63203 21.8062 1.36328 21.8062 0.582031 22.5874C-0.199219 23.3687 -0.199219 24.6374 0.582031 25.4187L4.58203 29.4187C5.36328 30.1999 6.63203 30.1999 7.41328 29.4187L11.4133 25.4187C12.1945 24.6374 12.1945 23.3687 11.4133 22.5874C10.632 21.8062 9.36328 21.8062 8.58203 22.5874L7.99453 23.1749V8.83115L8.58203 9.41865C9.36328 10.1999 10.632 10.1999 11.4133 9.41865C12.1945 8.6374 12.1945 7.36865 11.4133 6.5874L7.41328 2.5874Z" fill="white"/>
<path d="M14 13C14 10.7909 15.7909 9 18 9H35C35.5523 9 36 9.44772 36 10V22C36 22.5523 35.5523 23 35 23H18C15.7909 23 14 21.2091 14 19V13Z" fill="white"/>
</g>
<defs>
<clipPath id="clip0_4009_130">
<rect width="36" height="32" fill="white"/>
</clipPath>
</defs>
</svg>
