<svg width="32" height="32" viewBox="0 0 32 32" fill="none" xmlns="http://www.w3.org/2000/svg">
<path d="M2.58594 22.5861C1.80469 23.3674 1.80469 24.6361 2.58594 25.4174L6.58594 29.4174C7.16094 29.9924 8.01719 30.1611 8.76719 29.8486C9.51719 29.5361 10.0047 28.8111 10.0047 27.9986V25.9986H22.0047V27.9986C22.0047 28.8049 22.4922 29.5361 23.2422 29.8486C23.9922 30.1611 24.8484 29.9861 25.4234 29.4174L29.4234 25.4174C30.2047 24.6361 30.2047 23.3674 29.4234 22.5861L25.4234 18.5861C24.8484 18.0111 23.9922 17.8424 23.2422 18.1549C22.4922 18.4674 22.0047 19.1924 22.0047 20.0049V22.0049H10.0047V20.0049C10.0047 19.1986 9.51719 18.4674 8.76719 18.1549C8.01719 17.8424 7.16094 18.0174 6.58594 18.5861L2.58594 22.5861Z" fill="white"/>
<rect x="3" y="2" width="26" height="14" rx="4" fill="white"/>
</svg>
